<svg width="35" height="30" viewBox="0 0 35 30" fill="none" xmlns="http://www.w3.org/2000/svg">
<path d="M30.1625 3.97788L29.0658 2.24042C28.4586 1.27849 28.155 0.79753 27.7573 0.753057C27.3596 0.708584 26.9155 1.16502 26.0275 2.07788C23.1572 5.02824 20.287 4.59237 17.4167 9.8974C14.5465 4.59237 11.6762 5.02824 8.80599 2.07788C7.91791 1.16502 7.47387 0.708584 7.07613 0.753057C6.6784 0.79753 6.37481 1.27849 5.76763 2.24042L4.67091 3.97788C4.24718 4.64918 4.03531 4.98482 4.09261 5.33809C4.1499 5.69135 4.45546 5.93339 5.06657 6.41747L15.3706 14.5796C16.3558 15.3599 16.8484 15.7501 17.4167 15.7501C17.9851 15.7501 18.4777 15.3599 19.4628 14.5796L29.7669 6.41747C30.378 5.93339 30.6835 5.69135 30.7408 5.33809C30.7981 4.98482 30.5863 4.64918 30.1625 3.97788Z" stroke="white" stroke-width="1.5" stroke-linecap="round" stroke-linejoin="round"/>
<path d="M34.0834 9.0834L7.41671 29.0834V21.2573M0.750046 9.0834L27.4167 29.0834V21.2573" stroke="white" stroke-width="1.5" stroke-linecap="round" stroke-linejoin="round"/>
</svg>
