<svg width="14" height="11" viewBox="0 0 14 11" fill="none" xmlns="http://www.w3.org/2000/svg">
<path d="M5.94125 2.70635C5.87583 2.65977 5.79886 2.6321 5.71876 2.62636C5.63865 2.62063 5.55852 2.63705 5.48713 2.67382C5.41574 2.7106 5.35586 2.76632 5.31403 2.83487C5.2722 2.90343 5.25005 2.98217 5.25 3.06247V7.43747C5.25005 7.51778 5.2722 7.59652 5.31403 7.66508C5.35586 7.73363 5.41574 7.78935 5.48713 7.82613C5.55852 7.8629 5.63865 7.87932 5.71876 7.87359C5.79886 7.86785 5.87583 7.84018 5.94125 7.7936L9.00375 5.6061C9.06046 5.56563 9.10669 5.5122 9.13859 5.45026C9.17048 5.38831 9.18712 5.31965 9.18712 5.24997C9.18712 5.1803 9.17048 5.11164 9.13859 5.04969C9.10669 4.98775 9.06046 4.93432 9.00375 4.89385L5.94125 2.70635Z" fill="black"/>
<path d="M0 1.75C0 1.28587 0.184374 0.840752 0.512563 0.512563C0.840752 0.184374 1.28587 0 1.75 0H12.25C12.7141 0 13.1592 0.184374 13.4874 0.512563C13.8156 0.840752 14 1.28587 14 1.75V8.75C14 9.21413 13.8156 9.65925 13.4874 9.98744C13.1592 10.3156 12.7141 10.5 12.25 10.5H1.75C1.28587 10.5 0.840752 10.3156 0.512563 9.98744C0.184374 9.65925 0 9.21413 0 8.75V1.75ZM13.125 1.75C13.125 1.51794 13.0328 1.29538 12.8687 1.13128C12.7046 0.967187 12.4821 0.875 12.25 0.875H1.75C1.51794 0.875 1.29538 0.967187 1.13128 1.13128C0.967187 1.29538 0.875 1.51794 0.875 1.75V8.75C0.875 8.98206 0.967187 9.20462 1.13128 9.36872C1.29538 9.53281 1.51794 9.625 1.75 9.625H12.25C12.4821 9.625 12.7046 9.53281 12.8687 9.36872C13.0328 9.20462 13.125 8.98206 13.125 8.75V1.75Z" fill="black"/>
</svg>
