<svg width="266" height="225" viewBox="0 0 266 225" fill="none" xmlns="http://www.w3.org/2000/svg">
<g opacity="0.15" filter="url(#filter0_d_115_245)">
<path d="M119.029 171C159.075 171 191.539 163.055 191.539 153.255C191.539 143.454 159.075 135.51 119.029 135.51C78.9826 135.51 46.5187 143.454 46.5187 153.255C46.5187 163.055 78.9826 171 119.029 171Z" fill="#042030"/>
</g>
<g filter="url(#filter1_d_115_245)">
<path d="M175.816 67.6173L119.029 88.0274L62.1841 67.6173L35 109.164L119.029 139.386L203 109.164L175.816 67.6173Z" fill="#56C8C8"/>
<path opacity="0.45" d="M44.9061 107.468L114.594 135.51L90.6352 110.557C90.6352 110.557 51.2989 100.564 44.9061 107.468Z" fill="#240F4F"/>
<path opacity="0.45" d="M193.152 107.468L123.464 135.51L147.422 110.557C147.365 110.557 186.701 100.564 193.152 107.468Z" fill="#240F4F"/>
<path d="M119.029 139.386L35 109.164V113.101L119.029 143.322L203 113.101V109.164L119.029 139.386Z" fill="#0D2168"/>
<g filter="url(#filter2_d_115_245)">
<path d="M74.2787 157.555L84.012 130.725L115.343 141.99L74.2787 157.555Z" fill="#0B3D2E"/>
<path opacity="0.45" d="M76.9857 149.803L115.343 141.99L84.0121 130.725L76.9857 149.803Z" fill="#0B3D2E"/>
<path d="M119.029 140.597L74.2787 157.555L77.6192 161.249L119.029 145.745L160.381 161.249L163.779 157.555L119.029 140.597Z" fill="#0D2168"/>
<path d="M163.779 157.555L153.988 130.725L122.657 141.99L163.779 157.555Z" fill="#0B3D2E"/>
<path opacity="0.45" d="M161.014 149.803L122.657 141.99L153.988 130.725L161.014 149.803Z" fill="#0B3D2E"/>
</g>
<path d="M119.029 145.745C120.715 145.745 122.081 144.308 122.081 142.535C122.081 140.762 120.715 139.325 119.029 139.325C117.343 139.325 115.976 140.762 115.976 142.535C115.976 144.308 117.343 145.745 119.029 145.745Z" fill="white" fill-opacity="0.5"/>
<path d="M173.397 67.6173L119.029 96.0824L64.6606 67.6173C62.1841 71.0695 42.2568 106.015 42.2568 106.015C42.4871 106.015 42.6599 106.075 42.8903 106.075C92.8814 111.345 106.761 127.878 111.369 131.876C115.976 135.934 119.086 135.51 119.086 135.51C119.086 135.51 122.196 135.934 126.804 131.876C131.411 127.878 145.291 111.345 195.283 106.075C195.513 106.075 195.686 106.015 195.916 106.015C195.801 106.015 175.816 71.13 173.397 67.6173Z" fill="#F5B304"/>
<path d="M195.801 106.015C195.57 106.015 195.398 106.075 195.167 106.075C145.176 111.345 131.296 127.878 126.689 131.876C122.081 135.934 118.971 135.51 118.971 135.51C118.971 135.51 115.861 135.934 111.254 131.876C106.646 127.878 92.7662 111.345 42.7751 106.075C42.5447 106.075 42.372 106.015 42.1416 106.015C41.7384 106.681 42.1416 107.166 42.1416 107.166C92.651 112.314 106.07 128.908 110.678 132.966C115.285 136.963 118.914 136.66 118.914 136.66C118.914 136.66 122.542 136.963 127.149 132.966C131.757 128.969 145.176 112.374 195.686 107.166C195.801 107.166 196.204 106.681 195.801 106.015Z" fill="#0D2168"/>
<path d="M171.324 64.2862C143.506 57.2608 118.971 81.3047 118.971 81.3047C118.971 81.3047 94.4364 57.2608 66.6188 64.2862C66.6188 64.2862 58.7285 77.0047 47.8433 98.626C47.8433 98.626 102.615 105.106 118.971 129.271C135.328 105.106 190.099 98.626 190.099 98.626C179.214 77.0047 171.324 64.2862 171.324 64.2862Z" fill="#C2F0FF"/>
<path d="M190.099 98.626C190.099 98.626 135.328 105.106 118.971 129.271C102.672 105.106 47.9009 98.626 47.9009 98.626C47.9009 98.626 47.9009 100.564 44.8485 104.38C44.8485 104.38 94.5516 108.135 112.636 129.816C116.898 134.904 118.971 134.298 118.971 134.298C118.971 134.298 121.102 134.904 125.306 129.816C143.333 108.135 193.094 104.38 193.094 104.38C190.099 100.503 190.099 98.626 190.099 98.626Z" fill="#A7E9FF"/>
<path d="M168.214 66.8299C168.214 66.8299 147.422 61.258 118.971 84.4541C90.5777 61.3186 69.7289 66.8299 69.7289 66.8299L55.6761 95.5373C98.4104 98.626 118.971 121.338 118.971 121.338C118.971 121.338 139.532 98.626 182.266 95.5373L168.214 66.8299ZM119.029 118.612C119.029 118.612 99.7926 97.8993 59.0165 93.8415L70.8231 68.0412C70.8231 68.0412 91.2688 63.8623 119.029 85.7865C146.789 63.8623 167.235 68.0412 167.235 68.0412L179.041 93.8415C138.265 97.8993 119.029 118.612 119.029 118.612Z" fill="#56C8C8"/>
<path opacity="0.2" d="M124.27 106.072C131.949 100.116 155.946 86.9371 172.072 88.754" stroke="#56C8C8" stroke-width="3" stroke-linecap="round"/>
<path opacity="0.2" d="M124.27 89.3597C131.085 83.7482 148.805 72.7535 165.161 73.6666" stroke="#56C8C8" stroke-width="3" stroke-linecap="round"/>
<path opacity="0.2" d="M124.27 97.8387C131.661 91.7955 150.878 79.9551 168.617 80.9384" stroke="#56C8C8" stroke-width="3" stroke-linecap="round"/>
<path opacity="0.2" d="M114.479 106.072C106.8 100.116 82.8025 86.9371 66.6763 88.754" stroke="#56C8C8" stroke-width="3" stroke-linecap="round"/>
<path opacity="0.2" d="M114.479 89.3597C107.664 83.7482 89.9441 72.7535 73.5875 73.6666" stroke="#56C8C8" stroke-width="3" stroke-linecap="round"/>
<path opacity="0.2" d="M114.479 97.8387C107.088 91.7955 87.8707 79.9551 70.1319 80.9384" stroke="#56C8C8" stroke-width="3" stroke-linecap="round"/>
<path d="M119.029 81.3047C119.029 81.3047 119.605 79.1849 120.699 79.7906C120.699 79.7906 120.008 114.13 121.16 127.515C121.448 130.846 124.212 135.388 125.306 137.084H123.867L123.464 138.477C123.464 138.477 119.202 130.907 119.029 127.939C118.165 114.615 118.626 84.5146 119.029 81.3047Z" fill="#54DAF5"/>
</g>
<defs>
<filter id="filter0_d_115_245" x="29.5187" y="122.51" width="179.02" height="69.4905" filterUnits="userSpaceOnUse" color-interpolation-filters="sRGB">
<feFlood flood-opacity="0" result="BackgroundImageFix"/>
<feColorMatrix in="SourceAlpha" type="matrix" values="0 0 0 0 0 0 0 0 0 0 0 0 0 0 0 0 0 0 127 0" result="hardAlpha"/>
<feOffset dy="4"/>
<feGaussianBlur stdDeviation="8.5"/>
<feComposite in2="hardAlpha" operator="out"/>
<feColorMatrix type="matrix" values="0 0 0 0 0 0 0 0 0 0 0 0 0 0 0 0 0 0 0.85 0"/>
<feBlend mode="normal" in2="BackgroundImageFix" result="effect1_dropShadow_115_245"/>
<feBlend mode="normal" in="SourceGraphic" in2="effect1_dropShadow_115_245" result="shape"/>
</filter>
<filter id="filter1_d_115_245" x="-28" y="0" width="294" height="224.249" filterUnits="userSpaceOnUse" color-interpolation-filters="sRGB">
<feFlood flood-opacity="0" result="BackgroundImageFix"/>
<feColorMatrix in="SourceAlpha" type="matrix" values="0 0 0 0 0 0 0 0 0 0 0 0 0 0 0 0 0 0 127 0" result="hardAlpha"/>
<feOffset/>
<feGaussianBlur stdDeviation="31.5"/>
<feComposite in2="hardAlpha" operator="out"/>
<feColorMatrix type="matrix" values="0 0 0 0 0.396078 0 0 0 0 0.839216 0 0 0 0 0.988235 0 0 0 1 0"/>
<feBlend mode="normal" in2="BackgroundImageFix" result="effect1_dropShadow_115_245"/>
<feBlend mode="normal" in="SourceGraphic" in2="effect1_dropShadow_115_245" result="shape"/>
</filter>
<filter id="filter2_d_115_245" x="59.2787" y="119.725" width="119.5" height="60.5243" filterUnits="userSpaceOnUse" color-interpolation-filters="sRGB">
<feFlood flood-opacity="0" result="BackgroundImageFix"/>
<feColorMatrix in="SourceAlpha" type="matrix" values="0 0 0 0 0 0 0 0 0 0 0 0 0 0 0 0 0 0 127 0" result="hardAlpha"/>
<feOffset dy="4"/>
<feGaussianBlur stdDeviation="7.5"/>
<feComposite in2="hardAlpha" operator="out"/>
<feColorMatrix type="matrix" values="0 0 0 0 0 0 0 0 0 0 0 0 0 0 0 0 0 0 0.49 0"/>
<feBlend mode="normal" in2="BackgroundImageFix" result="effect1_dropShadow_115_245"/>
<feBlend mode="normal" in="SourceGraphic" in2="effect1_dropShadow_115_245" result="shape"/>
</filter>
</defs>
</svg>
